<?xml version="1.0" encoding="UTF-8"?>
<!DOCTYPE svg PUBLIC "-//W3C//DTD SVG 1.1//EN" "http://www.w3.org/Graphics/SVG/1.1/DTD/svg11.dtd">
<!-- Creator: CorelDRAW -->
<svg xmlns="http://www.w3.org/2000/svg" xml:space="preserve" width="41.2711mm" height="45.9004mm" version="1.1" style="shape-rendering:geometricPrecision; text-rendering:geometricPrecision; image-rendering:optimizeQuality; fill-rule:evenodd; clip-rule:evenodd"
viewBox="0 0 1616.15 1797.43"
 xmlns:xlink="http://www.w3.org/1999/xlink"
 xmlns:xodm="http://www.corel.com/coreldraw/odm/2003">
 <defs>
  <style type="text/css">
   <![CDATA[
    .fil1 {fill:#332C2B}
    .fil0 {fill:#332C2B;fill-rule:nonzero}
   ]]>
  </style>
 </defs>
 <g id="圖層_x0020_1">
  <metadata id="CorelCorpID_0Corel-Layer"/>
  <g id="H_多层PS_xff0c_如需继续更新_xff0c_请勿解组">
   <path class="fil0" d="M584.49 322.7l44.54 0 0 -22.25c3.9,-1.76 7.82,-3.48 11.75,-5.16l0 27.41 57.63 0 0 -48.71c3.9,-1.23 7.82,-2.41 11.75,-3.56l0 52.27 57.62 0 0 -66.09c3.9,-0.74 7.82,-1.44 11.75,-2.1l0 68.18 57.63 0 0 -74.33 11.75 0 0 74.33 5.36 0 0 11.75 -5.36 0 0 60.86 5.36 0 0 11.75 -5.36 0 0 60.86 5.36 0 0 11.75 -5.36 0 0 60.86 5.36 0 0 11.75 -5.36 0 0 60.86 5.36 0 0 11.75 -5.36 0 0 21.28c-3.92,-4.26 -7.84,-8.53 -11.75,-12.81l0 -8.48 -7.75 0 -10.78 -11.75 18.53 0 0 -60.86 -57.63 0 0 20.6c-4.13,-3.93 -7.9,-7.07 -11.75,-9.51l0 -11.09 -57.62 0 0 3.83 -11.75 -0 0 -3.82 -57.63 0 0 3.67c-3.56,0.07 -7.08,0.35 -10.48,1.14l-1.27 0.31 0 -5.13 -57.63 0 0 60.86 18.92 0c-1.44,3.3 -2.94,6.55 -4.25,9.92l-0.72 1.82 -13.95 0 0 33.86 -1.74 4.17c-2.64,6.22 -5.06,12.59 -8.02,18.67l-0.4 0.83 -6.25 15.07 -52.97 0 0 60.86 27.33 0c-0.42,1.08 -0.87,2.14 -1.35,3.06l-0.66 1.25 -3.11 7.44 -22.22 0 0 53.23 -0.33 0.76c-3.97,8.97 -7.72,18.04 -11.41,27.12l0 -8.49 -57.63 0 0 60.86 36.09 0 -0.98 2.46c-1.25,3.12 -2.91,6.14 -4.24,9.28l-30.87 0 0 60.86 5.96 0c-1.39,3.25 -2.8,6.48 -4.24,9.71l-0.9 2.04 -0.81 0 0 1.92c-3.54,8.47 -6.56,17.25 -10.51,25.45 -0.45,0.93 -0.85,1.86 -1.24,2.79l0 -30.16 -57.63 0 0 60.86 45.3 0c-1.65,4.01 -3.35,7.97 -5.15,11.75l-40.16 0 0 60.86 13.44 0c-0.68,1.57 -1.38,3.13 -2.11,4.68l-3.19 7.07 -8.13 0 0 19.13c-2.82,9.39 -2.79,18.84 0,27.81l0 13.92 6.86 0c3.81,5.47 8.29,9.25 13.57,11.75l-20.43 0 0 60.86 57.63 0 0 -56.63c2.32,-0.04 4.64,-0.06 6.95,-0.04l4.79 0.04 0 56.63 57.63 0 0 -56.71 11.75 -0.03 0 56.73 57.63 0 0 -56.65 9.5 -0.01 2.25 0 0 56.66 57.63 0 0 -60.86 -29.06 0c6.32,-2.91 11.17,-6.93 15.05,-11.75l14 0 0 -28.46c1.09,-2.29 2.16,-4.43 2.96,-6.81 0.4,-0.8 1.06,-2.06 1.63,-3.41 1.55,-3.65 3.33,-7.13 4.79,-10.85 0.75,-1.91 1.54,-3.79 2.37,-5.67l0 55.19 57.63 0 0 -60.86 -55.03 0c1.84,-3.9 3.74,-7.79 5.52,-11.75l49.51 0 0 -45.14 2.07 0.98c3.23,1.48 6.45,2.87 9.68,4.17l0 39.99 57.62 0 0 -27.59c3.9,0.27 7.82,0.35 11.75,0.27l0 27.33 57.63 0 0 -38.26c3.94,-1.51 7.93,-3.2 1"/>
  </g>
 </g>
</svg>